HIERARCHY
ROOT hip
{
	OFFSET 0.000000 0.000000 0.000000 
	CHANNELS 6 Xposition Yposition Zposition Xrotation Zrotation Yrotation
	JOINT abdomen
	{
		OFFSET 0.000000 3.402643 0.000000 
		CHANNELS 3 Xrotation Zrotation Yrotation
		JOINT chest
		{
			OFFSET 0.000000 8.438565 -0.680529 
			CHANNELS 3 Xrotation Zrotation Yrotation
			JOINT neck
			{
				OFFSET 0.000000 10.207942 -0.272212 
				CHANNELS 3 Xrotation Zrotation Yrotation
				JOINT head
				{
					OFFSET 0.000000 3.130431 0.000000 
					CHANNELS 3 Xrotation Zrotation Yrotation
					End Site
					{
						OFFSET 0.000000 3.130435 0.000000 
					}
				}
			}
			JOINT lCollar
			{
				OFFSET 3.470700 6.669187 -0.816635 
				CHANNELS 3 Yrotation Zrotation Xrotation
				JOINT lShldr
				{
					OFFSET 3.198488 0.000000 0.000000 
					CHANNELS 3 Zrotation Yrotation Xrotation
					JOINT lForeArm
					{
						OFFSET 10.139888 0.000000 0.000000 
						CHANNELS 3 Yrotation Zrotation Xrotation
						JOINT lHand
						{
							OFFSET 8.370511 0.000000 0.000000 
							CHANNELS 3 Zrotation Yrotation Xrotation
							End Site
							{
								OFFSET 4.083176 0.000000 0.000000 
							}
						}
					}
				}
			}
			JOINT rCollar
			{
				OFFSET -3.470700 6.669187 -0.816635 
				CHANNELS 3 Yrotation Zrotation Xrotation
				JOINT rShldr
				{
					OFFSET -3.198488 0.000000 0.000000 
					CHANNELS 3 Zrotation Yrotation Xrotation
					JOINT rForeArm
					{
						OFFSET -10.139888 0.000000 0.000000 
						CHANNELS 3 Yrotation Zrotation Xrotation
						JOINT rHand
						{
							OFFSET -8.370511 0.000000 0.000000 
							CHANNELS 3 Zrotation Yrotation Xrotation
							End Site
							{
								OFFSET -4.083176 0.000000 0.000000 
							}
						}
					}
				}
			}
		}
	}
	JOINT lThigh
	{
		OFFSET 5.308129 -1.633274 1.361059 
		CHANNELS 3 Xrotation Zrotation Yrotation
		JOINT lShin
		{
			OFFSET -2.041588 -20.007561 0.000000 
			CHANNELS 3 Xrotation Zrotation Yrotation
			JOINT lFoot
			{
				OFFSET 0.000000 -19.190928 -1.224953 
				CHANNELS 3 Xrotation Yrotation Zrotation
				End Site
				{
					OFFSET 0.000000 -2.449906 4.627600 
				}
			}
		}
	}
	JOINT rThigh
	{
		OFFSET -5.308129 -1.633274 1.361059 
		CHANNELS 3 Xrotation Zrotation Yrotation
		JOINT rShin
		{
			OFFSET 2.041588 -20.007561 0.000000 
			CHANNELS 3 Xrotation Zrotation Yrotation
			JOINT rFoot
			{
				OFFSET 0.000000 -19.190928 -1.224953 
				CHANNELS 3 Xrotation Yrotation Zrotation
				End Site
				{
					OFFSET 0.000000 -2.449906 4.627600 
				}
			}
		}
	}
}
MOTION
Frames: 6
Frame Time: 0.033333
0.316313 52.120403 -0.185413 -6.542969 -4.208984 138.973907 17.567980 -15.889727 -10.024314 -14.394531 12.089845 -0.517578 51.063168 8.107644 2.471410 -48.095707 -3.769531 -0.878906 2.000000 -2.000000 0.000000 -91.660156 13.925781 -11.638272 -45.300922 -1.790704 -1.906412 3.441566 57.959908 -9.112984 -2.000000 2.000000 0.000000 74.511719 -31.923830 23.383509 53.878876 1.456315 -2.043816 -12.754265 -67.542137 7.365264 -17.884109 13.011006 9.793718 42.010212 -4.159003 -3.490575 2.334265 6.046744 0.226829 -8.225344 1.183495 -20.326361 14.547144 5.060243 0.766771 -8.556064 0.828678 0.666774 
0.649557 52.167675 -0.317760 -6.542969 -4.375000 138.466049 17.662085 -15.895621 -9.313160 -14.599609 11.767579 -0.644531 51.063168 8.107644 2.471410 -48.447269 -3.730468 -1.035156 2.000000 -2.000000 0.000000 -91.621094 14.257813 -11.647986 -45.828831 -1.772345 -1.927044 3.786536 58.644569 -9.703158 -2.000000 2.000000 0.000000 74.560547 -31.582033 23.837891 53.878876 1.456315 -2.043816 -11.507566 -67.310486 6.226181 -18.719122 12.479039 8.898642 39.387657 -3.996144 -3.363178 1.207803 5.216027 -0.434456 -7.566448 0.937701 -19.941349 13.844584 5.607046 0.745151 -8.124695 1.287751 0.617243 
0.990519 52.222824 -0.429039 -6.357422 -4.550781 137.938675 17.919586 -15.910026 -8.633563 -14.970702 11.611329 -0.593737 51.063168 8.107644 2.471410 -48.798828 -3.535156 -1.347656 2.000000 -2.000000 0.000000 -91.640625 14.365235 -11.953126 -46.187790 -2.041332 -1.842859 4.787210 59.341797 -9.318471 -2.000000 2.000000 0.000000 74.619141 -31.425785 23.515625 53.878876 1.456315 -2.043816 -11.286179 -67.346802 6.112010 -19.871634 11.844564 8.546471 36.919659 -4.142343 -3.190738 -0.203686 4.312759 -0.529357 -7.309831 1.114562 -19.766476 13.313415 5.378221 1.017144 -7.705408 1.569811 0.644544 
1.333945 52.254337 -0.582260 -6.357422 -4.892578 137.450348 18.000021 -16.005280 -7.770716 -15.166017 11.289063 -0.722656 51.063168 8.107644 2.471410 -48.964844 -3.515625 -1.533203 2.000000 -2.000000 0.000000 -91.494141 14.570312 -11.745590 -46.012722 -2.199594 -1.872717 4.731092 59.546635 -9.316791 -2.000000 2.000000 0.000000 74.892578 -31.269531 23.198053 53.702812 1.465495 -2.033503 -11.445222 -66.948181 6.127724 -20.785210 11.353313 7.827707 34.288300 -4.391407 -3.011455 -1.091426 3.925654 -0.428311 -6.799822 1.388545 -19.093719 12.789890 5.613865 0.692162 -7.746099 1.420148 0.308503 
1.675068 52.293724 -0.800872 -6.357421 -5.078125 136.942490 18.065218 -16.016033 -7.044943 -15.371093 10.966797 -0.837986 51.063168 8.107644 2.471410 -49.306648 -3.486328 -1.679688 2.000000 -2.000000 0.000000 -91.416016 14.501951 -11.708983 -45.659992 -2.128503 -1.827981 4.169098 59.602962 -8.193831 -2.000000 2.000000 0.000000 75.205078 -30.800779 22.182503 53.702812 1.465495 -2.033503 -12.205208 -66.831009 6.489028 -21.897966 10.894349 6.778236 31.818880 -4.512485 -2.860196 -2.367142 3.241053 -0.640946 -6.037813 1.368740 -18.854042 12.083718 5.497935 0.873561 -7.463949 1.801453 0.553360 
2.030679 52.309486 -1.122827 -6.357422 -5.253906 136.258865 18.145817 -16.190784 -6.389014 -15.556641 10.800781 -0.740357 51.063168 8.107644 2.471410 -49.482422 -3.300781 -1.845703 2.000000 -2.000000 0.000000 -91.523438 14.228516 -11.794475 -44.960987 -2.067217 -1.616432 4.081031 59.631935 -6.366231 -2.000000 2.000000 0.000000 75.371086 -30.664063 21.865234 53.702812 1.465495 -2.033503 -12.515436 -66.757050 6.494491 -22.560728 10.425229 6.451963 29.148504 -4.545796 -2.628815 -3.147723 2.663325 -0.287833 -5.384689 1.485244 -18.345390 11.383539 5.479404 0.684568 -7.548851 2.146391 0.594733 
